<svg xmlns="http://www.w3.org/2000/svg" viewBox="0 0 16 16" shape-rendering="crispEdges"><rect x="0" y="0" width="16" height="16" fill="#8A8A8A"/><rect x="0" y="0" width="4" height="4" fill="#767676"/><rect x="4" y="0" width="4" height="4" fill="#6E6E6E"/><rect x="8" y="0" width="4" height="4" fill="#9A9A9A"/><rect x="12" y="0" width="4" height="4" fill="#767676"/><rect x="0" y="4" width="4" height="4" fill="#767676"/><rect x="4" y="4" width="4" height="4" fill="#8A8A8A"/><rect x="8" y="4" width="4" height="4" fill="#6E6E6E"/><rect x="12" y="4" width="4" height="4" fill="#9A9A9A"/><rect x="0" y="8" width="4" height="4" fill="#9A9A9A"/><rect x="4" y="8" width="4" height="4" fill="#767676"/><rect x="8" y="8" width="4" height="4" fill="#9A9A9A"/><rect x="12" y="8" width="4" height="4" fill="#6E6E6E"/><rect x="0" y="12" width="4" height="4" fill="#8A8A8A"/><rect x="4" y="12" width="4" height="4" fill="#6E6E6E"/><rect x="8" y="12" width="4" height="4" fill="#767676"/><rect x="12" y="12" width="4" height="4" fill="#8A8A8A"/><rect x="0" y="0" width="16" height="1" fill="#4E4E4E"/><rect x="0" y="0" width="1" height="16" fill="#4E4E4E"/><rect x="0" y="4" width="16" height="1" fill="#4E4E4E"/><rect x="4" y="0" width="1" height="16" fill="#4E4E4E"/><rect x="0" y="8" width="16" height="1" fill="#4E4E4E"/><rect x="8" y="0" width="1" height="16" fill="#4E4E4E"/><rect x="0" y="12" width="16" height="1" fill="#4E4E4E"/><rect x="12" y="0" width="1" height="16" fill="#4E4E4E"/></svg>