<svg xmlns="http://www.w3.org/2000/svg" viewBox="0 0 16 16" shape-rendering="crispEdges"><rect x="0" y="0" width="16" height="16" fill="#8C8C8C"/><rect x="13" y="0" width="1" height="1" fill="#6C6C6C"/><rect x="11" y="1" width="1" height="1" fill="#6C6C6C"/><rect x="12" y="1" width="1" height="1" fill="#6C6C6C"/><rect x="5" y="2" width="1" height="1" fill="#6C6C6C"/><rect x="11" y="2" width="1" height="1" fill="#6C6C6C"/><rect x="5" y="3" width="1" height="1" fill="#6C6C6C"/><rect x="7" y="3" width="1" height="1" fill="#6C6C6C"/><rect x="1" y="4" width="1" height="1" fill="#6C6C6C"/><rect x="10" y="4" width="1" height="1" fill="#6C6C6C"/><rect x="14" y="4" width="1" height="1" fill="#6C6C6C"/><rect x="9" y="5" width="1" height="1" fill="#6C6C6C"/><rect x="5" y="6" width="1" height="1" fill="#6C6C6C"/><rect x="6" y="6" width="1" height="1" fill="#6C6C6C"/><rect x="8" y="6" width="1" height="1" fill="#6C6C6C"/><rect x="9" y="6" width="1" height="1" fill="#6C6C6C"/><rect x="10" y="6" width="1" height="1" fill="#6C6C6C"/><rect x="6" y="8" width="1" height="1" fill="#6C6C6C"/><rect x="2" y="9" width="1" height="1" fill="#6C6C6C"/><rect x="5" y="9" width="1" height="1" fill="#6C6C6C"/><rect x="8" y="10" width="1" height="1" fill="#6C6C6C"/><rect x="10" y="10" width="1" height="1" fill="#6C6C6C"/><rect x="11" y="10" width="1" height="1" fill="#6C6C6C"/><rect x="4" y="12" width="1" height="1" fill="#6C6C6C"/><rect x="7" y="12" width="1" height="1" fill="#6C6C6C"/><rect x="15" y="12" width="1" height="1" fill="#6C6C6C"/><rect x="10" y="13" width="1" height="1" fill="#6C6C6C"/><rect x="3" y="14" width="1" height="1" fill="#6C6C6C"/><rect x="5" y="14" width="1" height="1" fill="#6C6C6C"/><rect x="15" y="14" width="1" height="1" fill="#6C6C6C"/><rect x="3" y="3" width="1" height="1" fill="#3FCB6E"/><rect x="4" y="3" width="1" height="1" fill="#6EE596"/><rect x="3" y="4" width="1" height="1" fill="#2A9E52"/><rect x="4" y="4" width="1" height="1" fill="#3FCB6E"/><rect x="10" y="4" width="1" height="1" fill="#3FCB6E"/><rect x="11" y="4" width="1" height="1" fill="#6EE596"/><rect x="10" y="5" width="1" height="1" fill="#2A9E52"/><rect x="11" y="5" width="1" height="1" fill="#3FCB6E"/><rect x="5" y="10" width="1" height="1" fill="#3FCB6E"/><rect x="6" y="10" width="1" height="1" fill="#6EE596"/><rect x="5" y="11" width="1" height="1" fill="#2A9E52"/><rect x="6" y="11" width="1" height="1" fill="#3FCB6E"/><rect x="11" y="11" width="1" height="1" fill="#3FCB6E"/><rect x="12" y="11" width="1" height="1" fill="#6EE596"/><rect x="11" y="12" width="1" height="1" fill="#2A9E52"/><rect x="12" y="12" width="1" height="1" fill="#3FCB6E"/></svg>