<svg xmlns="http://www.w3.org/2000/svg" viewBox="0 0 16 16" shape-rendering="crispEdges"><rect x="0" y="0" width="16" height="16" fill="#6DB33F"/><rect x="0" y="0" width="1" height="1" fill="#5A9633"/><rect x="3" y="0" width="1" height="1" fill="#84C452"/><rect x="8" y="0" width="1" height="1" fill="#5A9633"/><rect x="9" y="0" width="1" height="1" fill="#5A9633"/><rect x="13" y="0" width="1" height="1" fill="#5A9633"/><rect x="0" y="1" width="1" height="1" fill="#84C452"/><rect x="3" y="1" width="1" height="1" fill="#5A9633"/><rect x="4" y="1" width="1" height="1" fill="#5A9633"/><rect x="8" y="1" width="1" height="1" fill="#5A9633"/><rect x="10" y="1" width="1" height="1" fill="#5A9633"/><rect x="11" y="1" width="1" height="1" fill="#84C452"/><rect x="14" y="1" width="1" height="1" fill="#84C452"/><rect x="15" y="1" width="1" height="1" fill="#84C452"/><rect x="0" y="2" width="1" height="1" fill="#5A9633"/><rect x="2" y="2" width="1" height="1" fill="#84C452"/><rect x="3" y="2" width="1" height="1" fill="#5A9633"/><rect x="7" y="2" width="1" height="1" fill="#5A9633"/><rect x="10" y="2" width="1" height="1" fill="#5A9633"/><rect x="11" y="2" width="1" height="1" fill="#84C452"/><rect x="2" y="3" width="1" height="1" fill="#84C452"/><rect x="8" y="3" width="1" height="1" fill="#5A9633"/><rect x="9" y="3" width="1" height="1" fill="#84C452"/><rect x="12" y="3" width="1" height="1" fill="#5A9633"/><rect x="7" y="4" width="1" height="1" fill="#5A9633"/><rect x="8" y="4" width="1" height="1" fill="#5A9633"/><rect x="13" y="4" width="1" height="1" fill="#5A9633"/><rect x="3" y="5" width="1" height="1" fill="#84C452"/><rect x="8" y="5" width="1" height="1" fill="#84C452"/><rect x="11" y="5" width="1" height="1" fill="#5A9633"/><rect x="4" y="6" width="1" height="1" fill="#5A9633"/><rect x="7" y="6" width="1" height="1" fill="#5A9633"/><rect x="0" y="7" width="1" height="1" fill="#5A9633"/><rect x="1" y="7" width="1" height="1" fill="#84C452"/><rect x="2" y="7" width="1" height="1" fill="#5A9633"/><rect x="8" y="7" width="1" height="1" fill="#84C452"/><rect x="11" y="7" width="1" height="1" fill="#5A9633"/><rect x="12" y="7" width="1" height="1" fill="#5A9633"/><rect x="13" y="7" width="1" height="1" fill="#5A9633"/><rect x="15" y="7" width="1" height="1" fill="#84C452"/><rect x="0" y="8" width="1" height="1" fill="#5A9633"/><rect x="3" y="8" width="1" height="1" fill="#5A9633"/><rect x="4" y="8" width="1" height="1" fill="#5A9633"/><rect x="6" y="8" width="1" height="1" fill="#5A9633"/><rect x="7" y="8" width="1" height="1" fill="#84C452"/><rect x="10" y="8" width="1" height="1" fill="#84C452"/><rect x="12" y="8" width="1" height="1" fill="#5A9633"/><rect x="15" y="8" width="1" height="1" fill="#5A9633"/><rect x="0" y="9" width="1" height="1" fill="#5A9633"/><rect x="3" y="9" width="1" height="1" fill="#5A9633"/><rect x="6" y="9" width="1" height="1" fill="#5A9633"/><rect x="7" y="9" width="1" height="1" fill="#5A9633"/><rect x="8" y="9" width="1" height="1" fill="#5A9633"/><rect x="10" y="9" width="1" height="1" fill="#5A9633"/><rect x="14" y="9" width="1" height="1" fill="#84C452"/><rect x="2" y="10" width="1" height="1" fill="#84C452"/><rect x="6" y="10" width="1" height="1" fill="#84C452"/><rect x="8" y="10" width="1" height="1" fill="#5A9633"/><rect x="9" y="10" width="1" height="1" fill="#84C452"/><rect x="12" y="10" width="1" height="1" fill="#84C452"/><rect x="14" y="10" width="1" height="1" fill="#84C452"/><rect x="2" y="11" width="1" height="1" fill="#84C452"/><rect x="3" y="11" width="1" height="1" fill="#5A9633"/><rect x="5" y="11" width="1" height="1" fill="#5A9633"/><rect x="9" y="11" width="1" height="1" fill="#5A9633"/><rect x="0" y="12" width="1" height="1" fill="#5A9633"/><rect x="3" y="12" width="1" height="1" fill="#5A9633"/><rect x="4" y="12" width="1" height="1" fill="#5A9633"/><rect x="6" y="12" width="1" height="1" fill="#84C452"/><rect x="8" y="12" width="1" height="1" fill="#84C452"/><rect x="11" y="12" width="1" height="1" fill="#5A9633"/><rect x="12" y="12" width="1" height="1" fill="#5A9633"/><rect x="13" y="12" width="1" height="1" fill="#84C452"/><rect x="0" y="13" width="1" height="1" fill="#84C452"/><rect x="1" y="13" width="1" height="1" fill="#5A9633"/><rect x="10" y="13" width="1" height="1" fill="#84C452"/><rect x="12" y="13" width="1" height="1" fill="#5A9633"/><rect x="13" y="13" width="1" height="1" fill="#5A9633"/><rect x="15" y="13" width="1" height="1" fill="#5A9633"/><rect x="5" y="14" width="1" height="1" fill="#84C452"/><rect x="10" y="14" width="1" height="1" fill="#5A9633"/><rect x="12" y="14" width="1" height="1" fill="#5A9633"/><rect x="13" y="14" width="1" height="1" fill="#5A9633"/><rect x="14" y="14" width="1" height="1" fill="#5A9633"/><rect x="7" y="15" width="1" height="1" fill="#84C452"/><rect x="8" y="15" width="1" height="1" fill="#5A9633"/><rect x="9" y="15" width="1" height="1" fill="#84C452"/><rect x="14" y="15" width="1" height="1" fill="#84C452"/></svg>