<svg xmlns="http://www.w3.org/2000/svg" viewBox="0 0 16 16" shape-rendering="crispEdges"><rect x="0" y="0" width="16" height="16" fill="#8B5A2B"/><rect x="2" y="4" width="1" height="1" fill="#6B4423"/><rect x="3" y="4" width="1" height="1" fill="#6B4423"/><rect x="11" y="4" width="1" height="1" fill="#6B4423"/><rect x="4" y="5" width="1" height="1" fill="#6B4423"/><rect x="5" y="5" width="1" height="1" fill="#6B4423"/><rect x="12" y="5" width="1" height="1" fill="#9C6B36"/><rect x="13" y="5" width="1" height="1" fill="#6B4423"/><rect x="15" y="5" width="1" height="1" fill="#6B4423"/><rect x="3" y="6" width="1" height="1" fill="#9C6B36"/><rect x="13" y="6" width="1" height="1" fill="#9C6B36"/><rect x="14" y="7" width="1" height="1" fill="#9C6B36"/><rect x="1" y="8" width="1" height="1" fill="#9C6B36"/><rect x="13" y="8" width="1" height="1" fill="#9C6B36"/><rect x="1" y="9" width="1" height="1" fill="#6B4423"/><rect x="5" y="9" width="1" height="1" fill="#9C6B36"/><rect x="7" y="9" width="1" height="1" fill="#6B4423"/><rect x="10" y="9" width="1" height="1" fill="#9C6B36"/><rect x="12" y="9" width="1" height="1" fill="#6B4423"/><rect x="0" y="10" width="1" height="1" fill="#9C6B36"/><rect x="4" y="10" width="1" height="1" fill="#6B4423"/><rect x="6" y="10" width="1" height="1" fill="#9C6B36"/><rect x="8" y="10" width="1" height="1" fill="#6B4423"/><rect x="10" y="10" width="1" height="1" fill="#6B4423"/><rect x="12" y="10" width="1" height="1" fill="#6B4423"/><rect x="15" y="10" width="1" height="1" fill="#6B4423"/><rect x="0" y="11" width="1" height="1" fill="#9C6B36"/><rect x="3" y="11" width="1" height="1" fill="#6B4423"/><rect x="5" y="11" width="1" height="1" fill="#6B4423"/><rect x="6" y="11" width="1" height="1" fill="#6B4423"/><rect x="10" y="11" width="1" height="1" fill="#6B4423"/><rect x="12" y="11" width="1" height="1" fill="#6B4423"/><rect x="5" y="12" width="1" height="1" fill="#9C6B36"/><rect x="8" y="12" width="1" height="1" fill="#6B4423"/><rect x="11" y="12" width="1" height="1" fill="#6B4423"/><rect x="15" y="12" width="1" height="1" fill="#6B4423"/><rect x="4" y="13" width="1" height="1" fill="#6B4423"/><rect x="6" y="13" width="1" height="1" fill="#6B4423"/><rect x="7" y="13" width="1" height="1" fill="#6B4423"/><rect x="8" y="13" width="1" height="1" fill="#6B4423"/><rect x="9" y="13" width="1" height="1" fill="#9C6B36"/><rect x="10" y="13" width="1" height="1" fill="#6B4423"/><rect x="0" y="14" width="1" height="1" fill="#9C6B36"/><rect x="10" y="14" width="1" height="1" fill="#6B4423"/><rect x="11" y="14" width="1" height="1" fill="#6B4423"/><rect x="13" y="14" width="1" height="1" fill="#6B4423"/><rect x="0" y="15" width="1" height="1" fill="#6B4423"/><rect x="1" y="15" width="1" height="1" fill="#9C6B36"/><rect x="2" y="15" width="1" height="1" fill="#9C6B36"/><rect x="3" y="15" width="1" height="1" fill="#9C6B36"/><rect x="8" y="15" width="1" height="1" fill="#9C6B36"/><rect x="15" y="15" width="1" height="1" fill="#6B4423"/><rect x="0" y="0" width="16" height="3" fill="#6DB33F"/><rect x="0" y="2" width="1" height="2" fill="#5A9633"/><rect x="1" y="2" width="1" height="2" fill="#5A9633"/><rect x="2" y="3" width="1" height="2" fill="#7A4A24"/><rect x="3" y="2" width="1" height="2" fill="#5A9633"/><rect x="4" y="2" width="1" height="2" fill="#5A9633"/><rect x="4" y="3" width="1" height="2" fill="#7A4A24"/><rect x="7" y="3" width="1" height="2" fill="#7A4A24"/><rect x="10" y="3" width="1" height="2" fill="#7A4A24"/><rect x="12" y="2" width="1" height="2" fill="#5A9633"/><rect x="12" y="3" width="1" height="2" fill="#7A4A24"/></svg>