<svg xmlns="http://www.w3.org/2000/svg" viewBox="0 0 16 16" shape-rendering="crispEdges"><rect x="0" y="0" width="16" height="16" fill="#B98B4E"/><rect x="0" y="0" width="16" height="1" fill="#C79A5C"/><rect x="0" y="1" width="16" height="1" fill="#A97A3E"/><rect x="0" y="2" width="16" height="1" fill="#A97A3E"/><rect x="0" y="3" width="16" height="1" fill="#C79A5C"/><rect x="0" y="4" width="16" height="1" fill="#C79A5C"/><rect x="0" y="5" width="16" height="1" fill="#A97A3E"/><rect x="0" y="6" width="16" height="1" fill="#A97A3E"/><rect x="0" y="7" width="16" height="1" fill="#C79A5C"/><rect x="0" y="8" width="16" height="1" fill="#C79A5C"/><rect x="0" y="9" width="16" height="1" fill="#A97A3E"/><rect x="0" y="10" width="16" height="1" fill="#A97A3E"/><rect x="0" y="11" width="16" height="1" fill="#C79A5C"/><rect x="0" y="12" width="16" height="1" fill="#C79A5C"/><rect x="0" y="13" width="16" height="1" fill="#A97A3E"/><rect x="0" y="14" width="16" height="1" fill="#A97A3E"/><rect x="0" y="15" width="16" height="1" fill="#C79A5C"/><rect x="0" y="0" width="1" height="16" fill="#8A6636"/><rect x="5" y="0" width="1" height="16" fill="#8A6636"/><rect x="10" y="0" width="1" height="16" fill="#8A6636"/><rect x="15" y="0" width="1" height="16" fill="#8A6636"/><rect x="7" y="11" width="2" height="1" fill="#8A6636"/><rect x="12" y="4" width="2" height="1" fill="#8A6636"/><rect x="6" y="1" width="2" height="1" fill="#8A6636"/><rect x="2" y="4" width="2" height="1" fill="#8A6636"/><rect x="7" y="6" width="2" height="1" fill="#8A6636"/><rect x="12" y="0" width="2" height="1" fill="#8A6636"/></svg>